<?xml version="1.0" encoding="utf-8"?>
<!-- Generator: Adobe Illustrator 21.0.0, SVG Export Plug-In . SVG Version: 6.00 Build 0)  -->
<svg version="1.1" id="Layer_1" xmlns="http://www.w3.org/2000/svg" xmlns:xlink="http://www.w3.org/1999/xlink" x="0px" y="0px"
	 width="16px" height="16px" viewBox="0 0 16 16" style="enable-background:new 0 0 16 16;" xml:space="preserve">
<style type="text/css">
	.st0{fill:#231F20;}
</style>
<g>
	<g>
		<path class="st0" d="M7.6,3.8c0.3-0.1,0.9-0.1,1,0l0,0c0,0.1,0,0,0.1,0c0.1,0,0,0,0.2,0V3.6c0.1,0.1,0,0,0.1,0.1
			c0-0.2-0.2-0.3-0.4-0.3c-0.1,0-0.5-0.1-0.6,0c-0.3,0-0.4,0-0.6,0.2C7.2,3.7,6.9,3.8,7,4.1C7.2,4.1,7.1,3.9,7.6,3.8z M8.7,5.9
			C8.7,6,8.6,6,8.6,6C8.7,6,8.7,6,8.8,6.1C8.8,6.2,8.9,6.2,8.9,6c0-0.1,0-0.1-0.1-0.3C8.8,5.7,8.8,5.8,8.7,5.9z M10.2,7.7
			c0.1,0,0,0,0.1,0c-0.1-0.1-0.4-0.1-0.5,0.1C10,7.8,9.9,7.7,10.2,7.7z M11.7,4.6c0.1,0-0.1-0.2,0-0.2c-0.2-0.2-0.3-0.2-0.4-0.2
			c-0.3,0-0.4,0-0.4,0.4l0.4-0.1C11.3,4.4,11.6,4.5,11.7,4.6z M11.1,5.7c0,0,0.2,0,0.1,0.2c0,0.1,0.5,0.3,0.4-0.2
			C11.5,5.3,11.1,5.4,11.1,5.7z M8.3,5.9c0.1,0,0.2-0.1,0.2-0.4C8.4,5.2,8,5.3,7.9,5.6c0,0,0.2,0,0.1,0.2C8,5.8,8.1,5.9,8.3,5.9
			c-0.3,0-0.6,0-0.7,0c0,0,0,0,0,0c0,0,0,0,0,0c-0.1,0-0.1,0-0.2,0c0,0,0,0,0,0c0,0,0-0.1,0.1-0.2C7.5,5.3,7.7,5.1,8,5.1
			c0.5,0,0.5,0.4,0.8,0.3c0-0.1-0.2-0.3-0.3-0.4C8.2,4.7,7.5,5,7.3,5.4c0,0,0,0,0,0c0,0-0.1,0.1-0.2,0.4C6.9,6,7,6.1,7,6.2
			c0,0.1,0,0.2,0.1,0.2c0.1,0,0.4-0.3,0.5-0.3C7.7,6,8,6,8.2,6C8.3,6,8.3,6,8.3,5.9z M12.5,10.5L12.5,10.5
			C12.5,10.5,12.5,10.5,12.5,10.5C12.4,10.5,12.5,10.5,12.5,10.5z M8,0C3.6,0,0,3.6,0,8s3.6,8,8,8s8-3.6,8-8S12.4,0,8,0z M8.4,15.2
			C8.4,15.2,8.3,15.3,8.4,15.2c-0.1,0.1-0.3-0.2-0.8-0.5c-0.6-0.3-0.8-1-1.2-1.7c-0.4-0.7-1.2-2.4-1.2-2.5c0,0,0,0,0,0
			c0-0.2-0.1-0.4,0-0.5c0-0.2,0.1-0.1,0.1-0.1c0,0,0,0,0-0.1c-0.2,0-0.4,0-0.5-0.2C4.6,9.6,4.5,9.4,4.5,9.2c0-0.1-0.1-0.2-0.1-0.3
			c0-0.1,0-0.1,0-0.2C4.2,8.2,4.3,7.6,4.5,7.2C4.7,7.4,4.9,7.4,5,7.5c0.1,0.1,0,0,0.1,0.1c0,0.1,0,0.3,0,0.4c0,0.2,0,0.5,0,0.6
			c-0.1,0,0,0-0.1,0c0,0,0,0,0,0C5,8.5,4.9,8.4,4.9,8.3c0-0.1,0-0.2,0-0.3C5,7.9,5,8,5.1,7.9c0,0-0.2-0.4-0.2-0.1
			C4.7,8.2,5.1,8.6,4.5,8.5c0.1,0.1,0,0,0.1,0.1c0.1,0.1,0.1,0.1,0.2,0.1l0,0c0.2,0,0.1,0,0.3,0.1c0.1,0.1,0.1,0,0.1,0.2
			C5,8.7,4.3,9,4.8,9.6c0.2,0.2,0.4,0,0.5-0.1l0.1,0.4c0,0,0,0.1,0,0.1c0,0.2,0.1,0.4,0.3,0.5c0.2,0.1,0.1,0.3,0.5,0.5l0.2,0.4
			c0,0.2,0.1,0.1,0.2,0.3c0,0,0.2,0.3,0.2,0.3C6.7,12,7.2,13,7.9,13.3c0.3,0.4,0.6,1,0.6,1.2C8.5,14.7,8.4,14.9,8.4,15.2z M9.7,15.3
			c0-0.4,0.1-1,0.2-1.1c0.1-0.1,0.3-0.3,0.4-0.4c0.2-0.1,0.5,0,0.9-0.4c0.2-0.1,0.2-0.9,0.4-0.7l0-0.3c0,0,0,0,0,0l0.1-0.1
			c0.1,0.5,0.3,0.7,0.7,0.9l0-0.2c0.2,0.1,0.4,0.4,0.7,0.5C12,14.5,10.9,15.1,9.7,15.3z M13.1,13.5L13.1,13.5L13.1,13.5
			C13.2,13.5,13.1,13.5,13.1,13.5z M13.3,13.3c-0.8-0.6-1.5-2.1-0.9-2.9c0,0,0.1,0,0.1,0l0.4-1C12.9,9.6,13,10,13,10
			c0.2,0.4,0.2,0.4,0.1,0.7c0.3-0.2,0-1.1-0.2-1.3c-0.2-0.2-0.2-1-0.3-1.4c-0.1-0.5-0.3-0.9-0.4-1.5c0-0.2-0.3-1.4-0.3-1.5
			c-0.1,0.3-0.1,1.4,0,1.6c0.4,1.1-0.1,2.5-0.2,3.1c0,0.3-0.1,0.3-0.1,0.6c0,0.1-0.1,0.5-0.3,0.8c-0.1,0.2-0.3,0.3-0.3,0.3
			c0,0.2-0.2,0.4-0.2,0.6c0,0-0.2,0.5-0.4,0.7c-0.2,0.1-0.4,0.1-0.2-0.5c-0.1-0.2-0.6-0.2-0.6,0c0.1,0.9-1.3,0.6-0.7-0.6h0
			c0,0,0,0,0-0.1c0-0.1-0.2,0-0.2,0c0,0,0-0.2-0.1-0.2c-0.1,0,0,0.1,0,0.1c0,0,0-0.1-0.1,0c-0.1,0.1-0.1,0-0.1-0.1
			c0-0.1,0-0.1,0-0.2c0-0.1,0-0.1,0-0.2c0,0,0,0-0.1,0l0,0c0,0,0,0,0,0v0c-0.1,0.1-0.1,0.2-0.1,0.1c0,0,0,0,0,0c0-0.1,0,0-0.1-0.2
			c0.2-0.1,0.1,0.1,0.2-0.1c-0.1-0.1-0.1,0-0.2-0.1l-0.1,0.1C8.2,11,8,11,8,11c0,0,0-0.1-0.1-0.1c0-0.1-0.2,0-0.2-0.1
			c0-0.1-0.2,0-0.2,0c0,0,0-0.1,0-0.2c0-0.1-0.3,0.1-0.3,0c0-0.1,0-0.3,0-0.4c0,0,0.1-0.2,0-0.3C7.3,9.9,7.2,10,7.2,10
			c0,0-0.1-0.4-0.1-0.4c0,0-0.1,0-0.1,0.1c-0.1,0-0.1,0-0.1-0.1C6.9,9.5,7,9.4,7,9.4c0-0.1,0.1-0.1,0-0.2c-0.1,0-0.4,0.3-0.3,0.2
			c0-0.1,0.2-0.3,0.1-0.4C6.6,8.9,6.5,9.1,6.5,9.2c0,0,0,0,0,0h0c0,0,0-0.1,0-0.2c0-0.1,0.2-0.1,0.1-0.2c-0.1-0.1-0.1,0-0.2-0.1
			c-0.1,0,0-0.3-0.1-0.3c0-0.1-0.1,0.2-0.2,0.1C6.1,8.4,6,8.4,5.9,8.3C5.8,8.2,5.8,8.4,5.7,8.4c0,0-0.1-0.4-0.1-0.5
			c0-0.1-0.1,0-0.1,0.1c0-0.2,0.1-0.5-0.1-0.6l-0.1-1L5.3,5.9L5.2,4.4c0.1-0.2,0.1-0.1,0.1-0.4c0-0.2,0-0.4,0.1-0.5
			C5.5,3.3,5.6,3,5.7,2.7c0.3-0.5,0.1,0,0.7-0.5C6.6,2,6.6,2.2,6.8,2C7,1.8,6.9,1.9,7.2,1.8c0.3-0.2,0.2-0.2,0.5-0.2
			c0.3-0.1,0.4,0,0.5-0.2c0.8,0,1.6,0.3,2.3,0.6c-1-1.8-1.9-1.2-2.3-1.3c-0.1,0-1.8,0.2-1.1-0.1c0.1,0,0.2-0.1,0.3-0.1c0,0,0,0,0,0
			c0.2,0,0.3,0,0.5,0c4.1,0,7.5,3.4,7.5,7.5C15.5,10.1,14.7,11.9,13.3,13.3z M10.8,5.2c-0.4,0.3-0.2,0.2-0.4,0
			c-0.1,0.2,0.2,0.5,0.2,0.6c0.1,0.2,0.2,0.5,0.4,0.5c-0.3-0.5-0.3-0.4-0.3-0.5c-0.1-0.2-0.1-0.1,0.1-0.4c0.4,0,0.2-0.2,0.8-0.1
			l0,0.1C11.9,5.3,11.5,4.7,10.8,5.2z M11.2,8.5c0,0,0-0.1,0-0.2c-0.2,0-0.2,0-0.3-0.1c0-0.1,0,0,0.1-0.1C10,8.3,10.6,8.4,10,8
			C9.7,7.9,9.7,8,9.4,8c0,0.1-0.5,0.5-0.9,1c-0.2,0.3-0.2,0.6-0.3,1c0,0,0,0,0,0c0,0,0,0.1,0,0.1c0,0,0,0,0,0c0,0.1,0.1,0.2,0.1,0.1
			c0,0,0-0.3,0.1-0.3c0.1-0.1,0.1-0.1,0.1-0.2c0,0,0.1,0,0.2-0.1c0-0.1,0-0.2,0.1-0.2c0,0.1,0.1,0.1,0.1,0c0-0.1,0-0.1,0.1-0.1
			c0.1,0,0.1-0.1,0.2-0.2c0.1-0.1,0.1,0.1,0.1-0.1c0-0.2,0.1-0.2,0.3-0.3C9.8,8.7,10,8.7,10,8.7c0-0.1,0.1-0.1,0.1-0.1h0l0,0h0l0,0
			h0l0,0h0l0,0h0l0,0h0l0,0h0l0,0h0l0,0h0l0,0h0l0,0h0l0,0l0,0h0l0,0l0,0h0l0,0l0,0h0l0,0h0l0,0l0,0h0l0,0l0,0l0,0h0l0,0l0,0l0,0h0
			l0.1,0c0.1,0,0.1,0,0.2,0.1c0.1,0.1,0.2,0,0.2,0.1c0.1,0.1,0.1,0,0.2,0.1c0.1,0.1,0.1,0.1,0.1,0.2c0,0.1,0.1,0.2,0.1,0
			c0-0.2,0.1-0.2,0.1-0.4C11.3,8.6,11.3,8.6,11.2,8.5C11.2,8.5,11.2,8.5,11.2,8.5z M10.3,11.8c0,0-0.1,0-0.2,0c-0.1,0-0.1,0-0.2,0
			l-0.3,0.1c0.2,0.5,0.6,0.4,1,0.3c0.1-0.1,0.1-0.3,0.2-0.3v-0.1C10.7,11.7,10.4,11.7,10.3,11.8z M10.9,9.2
			C10.9,9.2,10.9,9.2,10.9,9.2C10.9,9.1,10.9,9.1,10.9,9.2C10.8,9.1,10.7,9,10.5,9c-0.3,0-0.5,0-0.4,0c0.1,0,0.5,0,0.6,0.1
			c0,0.2,0,0.3-0.1,0.4c-0.4,0.1-1.1,0-1.5,0C9,9.6,8.7,9.7,8.8,10.3c0.1,0.3,0.2,0.3,0.3,0.5c0-0.2,0-0.3,0.1-0.4
			c0.2-0.1,0.7-0.2,1.1,0c0,0.2,0,0.3-0.2,0.4c-0.1,0.1-0.4,0.2-0.5,0H9.6c-0.3,0.1-0.2-0.1-0.3-0.1c-0.5,0.2,1.6,1.5,1.7,0.1
			c0-0.4,0.2-0.5,0.1-0.9C11,9.7,11,9.3,10.9,9.2z M9.7,11.2c0.1-0.1,0.7-0.1,0.8-0.2C10.5,11.5,9.9,11.3,9.7,11.2z"/>
	</g>
</g>
</svg>
