<?xml version="1.0" encoding="utf-8"?>
<!-- Generator: Adobe Illustrator 21.0.0, SVG Export Plug-In . SVG Version: 6.00 Build 0)  -->
<svg version="1.1" id="Layer_1" xmlns="http://www.w3.org/2000/svg" xmlns:xlink="http://www.w3.org/1999/xlink" x="0px" y="0px"
	 width="16px" height="16px" viewBox="0 0 16 16" style="enable-background:new 0 0 16 16;" xml:space="preserve">
<g>
	<path d="M2.2,11.2h2.5c0.3,0,0.5-0.2,0.5-0.5c0-0.3-0.2-0.5-0.5-0.5H2.2c-0.3,0-0.5,0.2-0.5,0.5C1.7,11,1.9,11.2,2.2,11.2z"/>
	<path d="M6.7,11.2h2.5c0.3,0,0.5-0.2,0.5-0.5c0-0.3-0.2-0.5-0.5-0.5H6.7c-0.3,0-0.5,0.2-0.5,0.5C6.2,11,6.4,11.2,6.7,11.2z"/>
	<path d="M11.3,11.2h2.5c0.3,0,0.5-0.2,0.5-0.5c0-0.3-0.2-0.5-0.5-0.5h-2.5c-0.3,0-0.5,0.2-0.5,0.5C10.8,11,11,11.2,11.3,11.2z"/>
	<path d="M2.2,8.9h2.5c0.3,0,0.5-0.2,0.5-0.5c0-0.3-0.2-0.5-0.5-0.5H2.2c-0.3,0-0.5,0.2-0.5,0.5C1.7,8.7,1.9,8.9,2.2,8.9z"/>
	<path d="M6.7,8.9h2.5c0.3,0,0.5-0.2,0.5-0.5c0-0.3-0.2-0.5-0.5-0.5H6.7c-0.3,0-0.5,0.2-0.5,0.5C6.2,8.7,6.4,8.9,6.7,8.9z"/>
	<path d="M11.3,8.9h2.5c0.3,0,0.5-0.2,0.5-0.5c0-0.3-0.2-0.5-0.5-0.5h-2.5c-0.3,0-0.5,0.2-0.5,0.5C10.8,8.7,11,8.9,11.3,8.9z"/>
	<path d="M2.2,13.5h2.5c0.3,0,0.5-0.2,0.5-0.5c0-0.3-0.2-0.5-0.5-0.5H2.2c-0.3,0-0.5,0.2-0.5,0.5C1.7,13.2,1.9,13.5,2.2,13.5z"/>
	<path d="M6.7,13.5h2.5c0.3,0,0.5-0.2,0.5-0.5c0-0.3-0.2-0.5-0.5-0.5H6.7c-0.3,0-0.5,0.2-0.5,0.5C6.2,13.2,6.4,13.5,6.7,13.5z"/>
	<path d="M11.3,13.5h2.5c0.3,0,0.5-0.2,0.5-0.5c0-0.3-0.2-0.5-0.5-0.5h-2.5c-0.3,0-0.5,0.2-0.5,0.5C10.8,13.2,11,13.5,11.3,13.5z"/>
	<path d="M2.5,3.9C2.8,3.9,3,3.6,3,3.3V1.2c0-0.3-0.2-0.5-0.5-0.5c-0.3,0-0.5,0.2-0.5,0.5v2.1C1.9,3.6,2.2,3.9,2.5,3.9z"/>
	<path d="M5.2,3.9c0.3,0,0.5-0.2,0.5-0.5V1.2c0-0.3-0.2-0.5-0.5-0.5c-0.3,0-0.5,0.2-0.5,0.5v2.1C4.7,3.6,4.9,3.9,5.2,3.9z"/>
	<path d="M8,3.9c0.3,0,0.5-0.2,0.5-0.5V1.2c0-0.3-0.2-0.5-0.5-0.5c-0.3,0-0.5,0.2-0.5,0.5v2.1C7.5,3.6,7.7,3.9,8,3.9z"/>
	<path d="M10.8,3.9c0.3,0,0.5-0.2,0.5-0.5V1.2c0-0.3-0.2-0.5-0.5-0.5c-0.3,0-0.5,0.2-0.5,0.5v2.1C10.2,3.6,10.5,3.9,10.8,3.9z"/>
	<path d="M13.5,3.9c0.3,0,0.5-0.2,0.5-0.5V1.2c0-0.3-0.2-0.5-0.5-0.5c-0.3,0-0.5,0.2-0.5,0.5v2.1C13,3.6,13.2,3.9,13.5,3.9z"/>
	<path d="M14.7,1.7h-0.1v1.6c0,0.6-0.5,1.1-1.1,1.1c-0.6,0-1.1-0.5-1.1-1.1V1.7h-0.7v1.6c0,0.6-0.5,1.1-1.1,1.1
		c-0.6,0-1.1-0.5-1.1-1.1V1.7H9.1v1.6c0,0.6-0.5,1.1-1.1,1.1c-0.6,0-1.1-0.5-1.1-1.1V1.7H6.3v1.6c0,0.6-0.5,1.1-1.1,1.1
		c-0.6,0-1.1-0.5-1.1-1.1V1.7H3.5v1.6c0,0.6-0.5,1.1-1.1,1.1c-0.6,0-1.1-0.5-1.1-1.1V1.7H1.3C0.6,1.7,0,2.3,0,3v3.3v6.8
		c0,0.7,0.4,2.2,1.9,2.2h12.2c1.5,0,1.9-1.4,1.9-2.2c0,0,0,0,0,0V6.3V3C16,2.3,15.4,1.7,14.7,1.7z M15.5,13.1c0,0.1-0.1,1.6-1.4,1.6
		H1.9c-1.4,0-1.4-1.6-1.4-1.6V6.6h15V13.1z"/>
</g>
</svg>
