<?xml version="1.0" encoding="utf-8"?>
<!-- Generator: Adobe Illustrator 21.0.0, SVG Export Plug-In . SVG Version: 6.00 Build 0)  -->
<svg version="1.1" id="Layer_1" xmlns="http://www.w3.org/2000/svg" xmlns:xlink="http://www.w3.org/1999/xlink" x="0px" y="0px"
	 width="16px" height="16px" viewBox="0 0 16 16" style="enable-background:new 0 0 16 16;" xml:space="preserve">
<style type="text/css">
	.st0{fill:#231F20;}
</style>
<g>
	<g>
		<path class="st0" d="M9.7,4.2C9.6,4.3,9.5,4.5,9.5,4.6c0.2,0.1,0.2,0.1,0.6,0.1c0.2,0,0.4,0.1,0.6,0c0-0.1-0.4-0.2-0.6-0.3
			C10.1,4.3,10.1,4.2,9.7,4.2z M6.5,4.1c-0.2,0-0.4,0-0.5,0.2C5.8,4.4,5.7,4.6,5.7,4.8c0.2,0,0.2-0.1,0.4-0.2
			c0.7-0.3,1.4,0.1,1.6-0.3C7.6,3.8,7.2,4,6.5,4.1z M10.3,5.4C10.3,5.3,10.4,5.4,10.3,5.4C9.9,5.1,9.5,5.5,9.5,5.5
			c-0.2,0.1,0-0.1-0.2-0.2c-0.2,0.1,0,0.4,0,0.6c0.1,0.3,0.2,0.3,0.4,0.5l0.2-0.1C9.7,5.9,9.8,6.3,9.8,6c-0.1,0-0.2,0-0.2-0.1
			c0.1-0.2,0.1-0.2,0.3-0.2c0,0.4,0.5,0.7,0.6,0c0.3,0.1,0,0.1,0.1,0.4c0.2,0,0.2-0.1,0.2-0.3C10.6,5.5,10.6,5.6,10.3,5.4z M8,0
			C3.6,0,0,3.6,0,8s3.6,8,8,8s8-3.6,8-8S12.4,0,8,0z M9.2,15.3c-0.1,0.1-0.3,0.1-0.5,0.2c-0.2,0-0.3,0-0.5,0c-0.1,0-0.1,0-0.2,0
			c-0.4,0-0.9,0-1.3-0.1c-0.1,0-0.1-0.1-0.2-0.1C5.9,14.9,5,14,4.6,13.1c0.1-0.1,0.2-0.3,0.3-0.5c0.2-0.7-0.5-1.5-0.1-1.5
			c0.2,0,0.4,0.1,0.5,0.3c0.4,0.5,0.8,1.3,2,1.7c0.1,0.2,0.2,0.4,0.1,0.5c-0.1,0.3,0.4,0.3,0.7,0.2c0.3-0.1,0.8-0.5,1.2-0.9
			c0.2-0.1,0.4-0.1,0.7-0.2v-0.1c0,0.5,0.2,0.8,0.4,1.1C10.3,13.8,9.6,15.1,9.2,15.3z M13.3,13.3c-0.1-0.1-0.3-0.1-0.4-0.2
			c0.1-0.1,0.2-0.3,0.4-0.3c0,0,0,0,0.1,0c-1.1-0.7-1.3-1.4-1.4-1.7c-0.2-1.1,0.1-1.9,0.1-2.2c-0.1-1.1-1.2-6.8-1.9-7
			c0.2,0.3,0.6,1.5,0.7,1.7c0.2,0.9,0.3,1.4,0.2,2.3c0,1.5,0.4,2.9-0.2,4.4c-0.1,0.2-0.2,0.4-0.3,0.6c-0.2-0.3-0.3-0.4-0.3-0.4
			c-0.1,0-0.1,0.3-0.2,0.4c-0.3,0.3,0.1,0-0.1,0.3c-0.9,0.9-0.5,0.4-0.7,0.4c-0.4,0,0.1-1,0.1-1c-0.3,0-0.6,0-0.9,0
			c-0.1,0.3,0.3,0.2,0.2,0.4c-0.3,0.5-1,1.1-1,0.3c-0.6-0.4-0.8-0.6-0.7-0.9c0-0.2,0.2-0.3,0.4-0.6c0.2,0,0.3,0.2,0.4,0.3
			c0.4,0,0.9-0.2,1.6-0.2c0.2,0,0.3,0.1,0.4,0.1c0.1,0,0.2-0.1,0.3,0c0.3,0.1,0.3,0.4,0.4,0.5c0.1-0.4-0.1-1-0.3-1.3
			C9.6,8.5,9.5,8,9.4,8c-0.1,0-0.3,0.3-0.5,0.4C9.1,8.3,8.2,8,8.1,7.9c-0.1,0-0.3,0.4-0.5,0.5C7.4,8.5,7.1,8.6,7,8.9
			C6.2,9.6,6.7,9.8,6.8,10c0,0.1-0.1,0.2-0.2,0.2c-0.1-0.1-0.3,0.1-0.5,0.1c-0.2,0-0.3-0.1-0.4-0.4c0,0,0,0,0,0c0-0.3,0-0.9-0.2-1
			C5.4,8.7,5.2,8.3,5.3,7.9c0.1-0.4,0.2-0.4,0.3-0.6S5.5,7,5.6,6.9c0,0,0,0,0.1-0.1h0c0,0,0,0,0,0c0.3-0.1,0-0.4,0-0.5
			c0-0.1,0-0.1,0.1-0.2c0.2,0,0.3,0,0.4-0.1c0,0,0,0,0,0c0,0,0,0,0.1,0c0,0,0,0,0,0c0.1,0,0.1,0,0.2-0.1c0,0,0,0,0,0c0,0,0,0-0.1,0
			c0,0,0,0,0,0c0,0,0,0,0,0c0,0,0,0,0,0c0,0,0,0,0,0c0,0,0,0,0,0c0,0,0,0-0.1,0c0,0,0,0,0,0c0,0,0,0,0,0c0,0,0,0,0,0c0,0,0,0,0,0
			c0.1-0.1,0.1-0.2,0.3-0.2c0,0.1,0,0.2,0.1,0.3c0,0,0,0,0,0c0,0,0,0,0,0c0,0,0,0,0,0c0,0,0,0,0,0c0,0,0,0,0,0c0,0,0,0,0,0
			c0.1,0,0.2,0,0.2,0c0,0,0,0,0,0c0,0,0,0,0,0c0,0,0,0,0,0c0,0,0,0,0.1,0c0,0,0,0,0,0h0C7,5.8,7.1,5.7,7.1,5.6c0,0,0,0,0.1,0
			c0.1,0.2,0.1,0.2,0.1,0.2c0,0,0,0,0,0c0,0,0,0,0,0c0,0-0.1,0-0.1,0.1C7.3,6,7.5,6,7.6,6c0,0,0,0,0,0c0,0,0,0,0,0c0,0,0,0,0,0
			c0,0,0,0,0,0c0,0,0,0,0,0c0,0,0,0,0,0c0,0,0,0,0,0C7.8,5.9,7.8,6,7.8,6C7.6,6.2,7.3,6.4,7.4,6.4c0,0,0.1,0,0.2,0
			C7.8,6.4,8.2,6,8.2,5.8c0-0.2-0.2-0.4-0.3-0.4c-0.1,0-0.1,0.3-0.2,0.3c-0.1,0-0.2,0-0.2-0.2c0-0.2,0-0.1-0.2-0.2
			C7.1,5.3,6.9,5.2,6.8,5.2h0c0,0-0.1,0-0.1,0h0c-0.3,0-0.8,0.1-1.1,0.6C5.2,6.4,5.2,6.7,4.7,6.5C4.1,6.3,4.9,5.8,4.3,4.6
			c-0.2-0.3,0-0.5,0.2-1.2c0-0.3,0.1-0.5,0.2-0.8c0.4-0.6,1-1,1.7-1.2C7,1.3,7.5,1.2,7.9,1.2c1.1,0,1.6,0.4,1.8,0.5
			c0.1-0.4-0.1-0.3-0.2-0.4C9.4,0.6,8.7,0.6,8.3,0.5c-0.1,0-0.2,0-0.3,0c-0.6,0-1.3,0.3-1.6,0.4c-0.1,0-0.1,0,0,0
			c0,0,0.1-0.1,0.3-0.2C7,0.5,7.4,0.5,7.8,0.5c0.1,0,0.1,0,0.2,0h0c4.1,0,7.5,3.4,7.5,7.5C15.5,10.1,14.7,11.9,13.3,13.3z M7.8,9
			c0.4-0.1,0.8-0.2,1.1-0.3c0.2,0,0.4,0.1,0.5,0.1c0,0,0,0.1,0.1,0.2c0,0.1,0,0.2-0.1,0.2c0,0-0.2,0.1-0.2,0.1
			c0.1,0.1,0.2,0.2,0.3,0.2c0,0.3-1.8,0.2-1.8,0c0.1-0.1,0.4-0.1,0.5-0.2C8,9.3,7.8,9.2,7.8,9z"/>
	</g>
</g>
</svg>
