<?xml version="1.0" encoding="utf-8"?>
<!-- Generator: Adobe Illustrator 21.0.0, SVG Export Plug-In . SVG Version: 6.00 Build 0)  -->
<svg version="1.1" id="Layer_1" xmlns="http://www.w3.org/2000/svg" xmlns:xlink="http://www.w3.org/1999/xlink" x="0px" y="0px"
	 width="16px" height="16px" viewBox="0 0 16 16" style="enable-background:new 0 0 16 16;" xml:space="preserve">
<g>
	<circle cx="5.4" cy="1.7" r="1.7"/>
	<circle cx="10.5" cy="1.7" r="1.7"/>
	<path d="M13.7,10L13.7,10l0.4-4.5c0.1-0.7-0.4-1.3-1.1-1.4l-0.8-0.2c-1.1-0.2-2.2-0.2-3.2,0L8.1,4.1c0,0-0.1,0-0.1,0
		c0,0-0.1,0-0.1,0L7,3.9c-1.1-0.2-2.2-0.2-3.2,0L2.9,4.1C2.2,4.2,1.8,4.8,1.8,5.5l0.3,3.4C2.2,9.5,2.7,10,3.3,10l0.4,5.4
		C3.7,15.7,4,16,4.4,16h2c0.2,0,0.4-0.1,0.5-0.3c0,0,0-0.1,0-0.1L6.6,12c-0.4,0-0.7-0.3-0.8-0.7L5.6,8.9c0-0.5,0.3-0.9,0.7-1
		l0.6-0.1c0.7-0.1,1.5-0.1,2.2,0L9.6,8c0.5,0.1,0.8,0.5,0.7,1l-0.2,2.3c0,0.4-0.4,0.7-0.8,0.7l-0.3,3.6c0,0.1,0,0.1-0.1,0.2
		C9.2,15.9,9.3,16,9.5,16h2c0.4,0,0.6-0.3,0.7-0.6l0.2-2.5h1.8L13.7,10z M8,7.6c-0.6,0-1.2-0.5-1.2-1.2S7.4,5.3,8,5.3
		s1.2,0.5,1.2,1.2S8.6,7.6,8,7.6z"/>
</g>
</svg>
