<?xml version="1.0" encoding="utf-8"?>
<!-- Generator: Adobe Illustrator 21.0.0, SVG Export Plug-In . SVG Version: 6.00 Build 0)  -->
<svg version="1.1" id="Layer_1" xmlns="http://www.w3.org/2000/svg" xmlns:xlink="http://www.w3.org/1999/xlink" x="0px" y="0px"
	 width="16px" height="16px" viewBox="0 0 16 16" style="enable-background:new 0 0 16 16;" xml:space="preserve">
<g>
	<path d="M8,15.7c3.8,1.7,6.3-3.7,6.3-7.2c0-3.4-2.6-5.3-6-3.9c0.3-0.5,0.7-1.1,1.3-1.8c0.5-0.5,1.4-1.3,1.4-1.3
		c0.1-0.1,0.1-0.3,0-0.3L9.9,0.7c-0.2-0.1-0.4,0-0.5,0.1c0,0-0.8,1.2-1.8,3.7c-3-1.4-5.9,0.6-5.9,3.9C1.7,12,4.4,17.3,8,15.7z"/>
	<path d="M4.9,0C4.7,0,4.5,0.2,4.5,0.3c0,0-0.1,1.4,0.8,2.3c1,1,2.3,0.8,2.3,0.8C7.9,3.5,8,3.3,8,3.2c0,0,0.1-1.4-0.8-2.3
		C6.2-0.1,4.9,0,4.9,0z"/>
</g>
</svg>
