<?xml version="1.0" encoding="utf-8"?>
<!-- Generator: Adobe Illustrator 21.0.0, SVG Export Plug-In . SVG Version: 6.00 Build 0)  -->
<svg version="1.1" id="Layer_1" xmlns="http://www.w3.org/2000/svg" xmlns:xlink="http://www.w3.org/1999/xlink" x="0px" y="0px"
	 width="16px" height="16px" viewBox="0 0 16 16" style="enable-background:new 0 0 16 16;" xml:space="preserve">
<g>
	<path d="M14.7,11.5l-4.9,1.2l0.1,0.4l4.9-1.2L14.7,11.5z M10.2,12.3l4.5-1.1c0.7-0.2,1.4-4.9,0.6-5.8c-0.8-0.9-1.6-0.7-2-0.6
		C12.8,5,12.5,5.3,12.9,6c0.3,0.6-0.3,1.2,0,2.1c-0.5-1,0-1.2-0.3-2.3c-0.3-0.7,0.1-1.4,1.1-1.5c0.2,0,0.4-0.1,0.7,0l-0.2-0.9
		c-0.4-1.7-2.3-2.6-4.3-2.1C7.9,1.7,6.6,3.5,7,5.1l2.1,6.6C9.2,12.1,9.7,12.4,10.2,12.3z M9.6,5.5c-0.2,0-0.4,0-0.6,0
		c-0.2,0-0.4-0.1-0.5-0.1C8.3,5.2,8.2,5.2,8.1,5.1C7.9,5,7.9,5,7.8,4.9C7.6,4.8,7.6,4.7,7.6,4.7s0.1,0.1,0.2,0.2
		C7.9,4.9,8,4.9,8.1,5c0.1,0,0.3,0.1,0.4,0.1c0.1,0,0.3,0.1,0.5,0.1c0.2,0,0.4,0,0.5,0c0.1,0,0.2,0,0.3,0c0.1,0,0.2,0,0.3-0.1
		c0.2,0,0.4-0.1,0.6-0.2c0.1,0,0.2-0.1,0.3-0.1c0.1,0,0.2-0.1,0.3-0.1c0.2-0.1,0.4-0.2,0.5-0.3c0.3-0.2,0.6-0.4,0.8-0.6
		c0.1-0.1,0.1-0.1,0.2-0.2c0,0,0-0.1,0.1-0.1c0,0,0-0.1,0.1-0.1C13,3.3,13,3.2,13.1,3.2c0-0.1,0.1-0.1,0.1-0.2c0,0,0-0.1,0-0.1
		s0,0,0,0.1c0,0,0,0.1-0.1,0.2c0,0.1-0.1,0.2-0.1,0.3c0,0,0,0.1,0,0.1c0,0,0,0.1-0.1,0.1c0,0.1-0.1,0.1-0.1,0.2
		c-0.2,0.3-0.5,0.5-0.8,0.7c-0.2,0.1-0.3,0.2-0.5,0.3c-0.1,0-0.2,0.1-0.3,0.1c-0.1,0-0.2,0.1-0.3,0.1c-0.2,0.1-0.4,0.1-0.6,0.2
		c-0.1,0-0.2,0-0.3,0.1C9.8,5.4,9.7,5.4,9.6,5.5z M15.4,13.3c0-0.1-0.1-0.1-0.1-0.2l-2.3,0.6c0,0-0.3,0.3-0.2,0.8
		c0.2,0.7,0.4,0.8,0.6,0.8l2.3-0.6c0-0.1,0-0.2,0-0.2L15.4,13.3z M12.4,14.5c-0.1-0.5,0-0.8,0.1-1l-2.1,0.5
		c-0.2,0.1-0.4,0.3-0.3,0.5l0.3,1.2c0,0.2,0.3,0.3,0.5,0.3l2.1-0.5C12.8,15.4,12.6,15.1,12.4,14.5z M15,12.6l-0.1-0.4L10,13.4
		l0.1,0.4L15,12.6z"/>
	<g>
		<path d="M6.7,5.2C6.6,4.8,6.6,4.4,6.7,4.1l0.1-0.4C6.8,3.3,7,2.9,7.3,2.6c0.1-0.1,0.1-0.2,0.2-0.3L7.3,1.8
			C6.7,0.2,4.6-0.4,2.7,0.3C0.9,1.1-0.1,3,0.5,4.6l0.4,0.8C1.1,5.2,1.3,5.1,1.5,5c0.9-0.5,1.6-0.2,1.8,0.6c0.3,1.1,0.9,1,1.1,2.1
			C4,6.8,3.3,6.6,3.1,6C3,5.2,2.6,5.1,2,5.2C1.6,5.4,0.8,5.7,0.7,6.9C0.6,8.1,4,11.5,4.7,11.2l3.5-1.4L6.7,5.2z M6.6,2.1
			c0,0.1-0.1,0.2-0.1,0.3c0,0.1-0.1,0.3-0.2,0.4C6.1,2.9,6,3,5.9,3.2C5.8,3.3,5.6,3.4,5.4,3.6C5.4,3.6,5.3,3.7,5.2,3.7
			C5.1,3.8,5,3.8,4.9,3.9C4.7,3.9,4.5,4,4.3,4.1C4.2,4.1,4.1,4.1,4,4.2c-0.1,0-0.2,0-0.3,0.1C3.4,4.3,3.2,4.3,3,4.3
			c-0.4,0-0.8,0-1.1-0.1c-0.1,0-0.2,0-0.2-0.1c0,0-0.1,0-0.1,0c0,0-0.1,0-0.1,0C1.4,4,1.3,3.9,1.2,3.8c-0.1,0-0.1-0.1-0.2-0.1
			C1,3.7,1,3.7,1,3.7s0,0,0.1,0c0,0,0.1,0.1,0.2,0.1c0.1,0,0.2,0.1,0.3,0.1c0,0,0.1,0,0.1,0c0,0,0.1,0,0.1,0C1.8,4,1.9,4,2,4
			C2.3,4,2.6,4,3,4c0.2,0,0.4,0,0.6-0.1c0.1,0,0.2,0,0.3-0.1c0.1,0,0.2-0.1,0.3-0.1c0.2-0.1,0.4-0.1,0.6-0.2c0.1,0,0.2-0.1,0.3-0.1
			c0.1,0,0.2-0.1,0.3-0.1C5.5,3.2,5.6,3.1,5.7,3C5.9,2.9,6,2.8,6.1,2.7c0.1-0.1,0.2-0.2,0.2-0.3C6.4,2.2,6.5,2.1,6.6,2.1
			c0-0.2,0.1-0.3,0.1-0.3S6.6,1.9,6.6,2.1z"/>
		<polygon points="8.3,10.1 4.8,11.5 5,11.9 8.4,10.5 		"/>
		<path d="M9.7,13.2l-0.2-0.7c-0.4-0.1-0.6-0.4-0.7-0.8l-0.1-0.3l-0.9,0.4c0.2,0.1,0.5,0.3,0.7,0.7c0.2,0.5,0.2,0.9,0.1,1.1
			L9.7,13.2z"/>
		<path d="M7.6,12.1l-2.2,0.9c0,0.1,0,0.2,0,0.2l0.5,1.1c0,0.1,0.1,0.1,0.2,0.2l2.2-0.9c0.1-0.1,0.3-0.3,0-1
			C8,12.2,7.6,12.1,7.6,12.1z"/>
		<polygon points="8.5,10.7 5.1,12.1 5.3,12.5 8.6,11.1 		"/>
	</g>
</g>
</svg>
