<?xml version="1.0" encoding="utf-8"?>
<!-- Generator: Adobe Illustrator 21.0.0, SVG Export Plug-In . SVG Version: 6.00 Build 0)  -->
<svg version="1.1" id="Layer_1" xmlns="http://www.w3.org/2000/svg" xmlns:xlink="http://www.w3.org/1999/xlink" x="0px" y="0px"
	 width="16px" height="16px" viewBox="0 0 16 16" style="enable-background:new 0 0 16 16;" xml:space="preserve">
<g>
	<path d="M6.6,6.9c0.3,0,0.6,0.1,0.8,0.3h1.2C8.3,6.5,7.5,5.9,6.6,5.9C5.5,5.9,4.5,6.8,4.5,8c0,1.2,0.9,2.1,2.1,2.1
		c0.9,0,1.6-0.5,1.9-1.3H7.4C7.2,9,6.9,9.1,6.6,9.1C6,9.1,5.5,8.6,5.5,8C5.5,7.4,6,6.9,6.6,6.9z"/>
	<path d="M9.8,7.2h0.9c-0.4-2-2.1-3.4-4.1-3.4C4.3,3.8,2.4,5.7,2.4,8c0,2.3,1.9,4.2,4.2,4.2c2.1,0,3.8-1.5,4.1-3.4H9.8
		c-0.3,1.4-1.6,2.5-3.2,2.5c-1.8,0-3.3-1.5-3.3-3.3c0-1.8,1.5-3.3,3.3-3.3C8.2,4.7,9.5,5.8,9.8,7.2z"/>
	<path d="M6.6,13.4c-3,0-5.4-2.4-5.4-5.4c0-3,2.4-5.4,5.4-5.4c2.7,0,5,2,5.3,4.6h1.2C12.8,3.9,10,1.4,6.6,1.4C3,1.4,0,4.3,0,8
		c0,3.7,3,6.6,6.6,6.6c3.4,0,6.2-2.6,6.6-5.9H12C11.6,11.4,9.3,13.4,6.6,13.4z"/>
	<polygon points="16,7.2 14.7,7.2 14.2,7.7 6.5,7.7 6.5,8.3 14.2,8.3 14.7,8.8 16,8.8 15.2,8 	"/>
</g>
</svg>
