<?xml version="1.0" encoding="utf-8"?>
<!-- Generator: Adobe Illustrator 21.0.0, SVG Export Plug-In . SVG Version: 6.00 Build 0)  -->
<svg version="1.1" id="Layer_1" xmlns="http://www.w3.org/2000/svg" xmlns:xlink="http://www.w3.org/1999/xlink" x="0px" y="0px"
	 width="16px" height="16px" viewBox="0 0 16 16" style="enable-background:new 0 0 16 16;" xml:space="preserve">
<style type="text/css">
	.st0{fill:#231F20;}
</style>
<path class="st0" d="M14.1,0H1.9C0.9,0,0,0.8,0,1.9v12.2c0,1,0.9,1.9,1.9,1.9h12.2c1.1,0,1.9-0.8,1.9-1.9V1.9C16,0.8,15.1,0,14.1,0z
	 M11.1,2.3c0-0.2,0.2-0.4,0.4-0.4h2.2c0.2,0,0.4,0.2,0.4,0.4v2.2c0,0.2-0.2,0.4-0.4,0.4h-2.2c-0.2,0-0.4-0.2-0.4-0.4V2.3z M8,4.9
	c1.7,0,3.1,1.4,3.1,3.1c0,1.7-1.4,3.1-3.1,3.1c-1.7,0-3.1-1.4-3.1-3.1C4.9,6.3,6.3,4.9,8,4.9z M14.2,13.7c0,0.2-0.2,0.4-0.4,0.4H2.3
	c-0.2,0-0.4-0.2-0.4-0.4v-7h1.5C3.2,7.1,3.2,7.6,3.2,8c0,2.7,2.2,4.9,4.9,4.9c2.7,0,4.9-2.2,4.9-4.9c0-0.4-0.1-0.9-0.2-1.3h1.5V13.7
	z"/>
</svg>
