<?xml version="1.0" encoding="utf-8"?>
<!-- Generator: Adobe Illustrator 21.0.0, SVG Export Plug-In . SVG Version: 6.00 Build 0)  -->
<svg version="1.1" id="Layer_1" xmlns="http://www.w3.org/2000/svg" xmlns:xlink="http://www.w3.org/1999/xlink" x="0px" y="0px"
	 width="16px" height="16px" viewBox="0 0 16 16" style="enable-background:new 0 0 16 16;" xml:space="preserve">
<path d="M4.3,10.6c0.1,0.2,0.5,0.1,0.9,0c0.3-0.1,0.6-0.3,1-0.2c0.4,0,0.6-0.1,0.5-0.3C6.6,9.8,6.5,9.7,6.5,9.6
	c0-0.1,0.2-0.7,0.3-0.8c0.1-0.1,0.1,0.1,0.1,0.1s0.1,1.6,0.3,1.9c0.2,0.4,0.3,1,0.4,1.5c0.1,0.5,0.2,0.9,0.1,1.3
	c-0.1,0.4,0.1,1,0.3,1.1c0.1,0.1,0.3,0.1,0.4,0.2c0.1,0-0.3,0.3-0.5,0.4c-0.2,0.1-0.8,0.3-0.8,0.5c0,0.2,0.3,0.1,0.8,0.1
	c0.5,0,1.5,0.1,1.5-0.2c0.1-0.3,0-0.4-0.1-0.6c-0.1-0.2-0.1-0.4,0-0.4c0,0,0.2-0.5,0.1-0.6c-0.1-0.2-0.3-1-0.2-1.2
	c0-0.2-0.1-1.1-0.2-1.5c-0.2-0.3,0-0.8-0.1-1.1C8.8,10.2,9,9.8,9,9.6C9,9.4,9,9.1,9,8.9c0.1-0.1,0.3-0.4,0.3-0.5l0.4-0.1
	c0,0,0.3-1.3,0-1.9c0-0.1,0-0.1-0.1-0.1c0.1-0.1,0.4-0.2,0.8-0.3c0.5-0.1,1.1-0.6,1.1-0.8c0-0.2,0-0.2,0-0.3c-0.1-0.1,0-0.2-0.1-0.2
	c-0.1,0-0.2,0-0.2-0.1c0,0-0.2-0.3-0.4-0.5c-0.2-0.2-0.2-0.3-0.3-0.4c-0.1-0.1-0.2-0.4-0.4-0.5C10.1,3,9.8,2.9,9.8,2.9
	c0,0-0.6-0.2-0.6-0.2S9.1,2.3,8.9,2.3C8.8,2.3,8.7,2,8.8,2c0,0,0.4-0.3,0.4-0.6c0,0,0,0,0,0c0.2,0.2,0,0.8-0.2,0.9
	c0.7,0.2,0.8-0.4,0.8-1.1c0-0.5-0.4-0.6-0.7-0.6C9.1,0.4,9,0.2,8.7,0.1c-0.5-0.2-0.9,0-0.9,0C7.3,0,6.8,0.6,7.1,1
	c0,0.1,0.1,0.3,0,0.4C7.1,1.6,7,1.8,7.1,1.8c0.1,0,0.1,0.1,0.1,0.2c0,0,0,0.1,0,0.1c0,0.1,0.1,0.1,0.1,0.2s0.1,0.2,0.2,0.2
	c0.2,0,0.4,0,0.4,0.1c0,0-0.3,0.1-0.5,0.1c-0.3,0-0.5-0.1-0.8,0.3C6.3,3.2,5.9,3.6,5.9,3.6s0-0.4-0.2-0.8c-0.1-0.4-0.1-0.6,0-0.9
	c0.2-0.3,0.4-0.4,0.4-0.6s0-0.2,0-0.2C6,1,5.9,1,5.8,1c-0.1,0-0.2,0-0.3,0.1C5.4,1.2,5.2,1.5,5.2,1.7c0,0.2-0.1,0.3-0.1,0.4
	c0,0.1,0,0.6,0,1c0,0.4,0.1,1.8,0.5,1.8c0.4,0,1.1-0.7,1.3-0.7c0,0.2-0.1,0.5,0,0.7C7,5,6.8,5.3,6.9,5.4c0,0-0.7-0.3-1.1,0
	C5.4,5.6,5.3,6.4,5.1,7.1C4.9,7.8,4.7,8.4,4.8,8.8c0.1,0.4,0.5,0.7,0.5,0.7S5,9.9,4.7,10C4.4,10.2,4.3,10.4,4.3,10.6z M9.5,5.1
	c0-0.1,0.3-0.2,0.4-0.2c0.1,0,0.5,0.5,0.5,0.5S10,5.7,9.6,5.7c0-0.1,0-0.1-0.1-0.2C9.5,5.4,9.5,5.2,9.5,5.1z"/>
</svg>
