<?xml version="1.0" encoding="utf-8"?>
<!-- Generator: Adobe Illustrator 21.0.0, SVG Export Plug-In . SVG Version: 6.00 Build 0)  -->
<svg version="1.1" id="Layer_1" xmlns="http://www.w3.org/2000/svg" xmlns:xlink="http://www.w3.org/1999/xlink" x="0px" y="0px"
	 width="16px" height="16px" viewBox="0 0 16 16" style="enable-background:new 0 0 16 16;" xml:space="preserve">
<path d="M3.4,3.4c0,0.8,0,0.9,0.1,1.5c0.1,0.5,0.4,1.1,0.7,1c0.3-0.1,0.4-0.2,0.4-0.2s0.5,0.7,0.8,1.2c0.2,0.5,0.1,0.9,0.1,1.3
	c0,0.4,0.2,0.9,0.5,1.4c0.3,0.4,0.4,1.1,0.4,1.1h0.1c0,0,0.1,0.5,0.1,0.8c0,0.3-0.1,0.7,0,1.5c0.1,0.9,0.2,1.1,0.2,1.3
	c0,0.2-0.1,0.4,0,0.5c0.1,0.1,0.1,0.4,0,0.5c-0.1,0.1-0.1,0.4,0,0.4c0.1,0.1,0.3,0.2,0.4,0.2c0.1,0,0.3,0.1,0.4,0
	c0.1,0,0.3,0.1,0.3-0.2c-0.1-0.3-0.1-0.3-0.2-0.5c-0.1-0.2-0.1-0.8-0.1-0.9c-0.1-0.1-0.1-1,0-1.5c0.1-0.4,0.1-0.7,0-0.9
	c0-0.2,0.3-0.3,0.2-1c0-0.7,0-1.2,0-1.2L8.5,9c0,0-0.2-0.9-0.2-1c0-0.1,0.7-0.1,0.8-0.2c0.2-0.1,0.3-0.7,0.3-0.7s0.7-0.9,0.8-1.1
	c0,0,0.4,0.9,0.5,1.2C10.8,7.5,11,7.8,10.9,8c-0.1,0.2-0.4,0.5-0.1,0.7c0.3,0.2,0.5,0.1,0.7,0.3c0.2,0.2,0.6,0.6,0.8,0.6
	c0.2,0.1,0.4,0.1,0.3-0.1c-0.1-0.2-0.2-0.1-0.3-0.3C12.2,8.9,12,8.3,11.8,8c-0.2-0.3-0.2-0.7-0.3-1.2c0-0.5-0.2-1.4-0.2-1.9
	c0-0.5-0.1-1-0.7-1C10.2,3.9,10,4,9.8,4.2c0-0.1,0-0.3-0.1-0.5c0-0.4,0-0.9-0.2-1.3C9.2,2,9.2,1.8,9.1,1.6C9.1,1.4,9,1,8.8,1
	C8.7,1,8.7,0.9,8.6,1C8.4,1,8.3,1,8.3,1.1c-0.1,0.1-0.2,0-0.2,0.2S8,1.6,8.1,1.7c0.1,0.1-0.1,0.1,0,0.2C8.1,2,8.2,2.1,8.4,2
	c0.1,0,0.2,0.1,0.2,0.2c0,0.1,0.1,0.3,0.1,0.5c0,0.2,0,0.5,0,0.5S8.3,3,8.2,3C8,3,7.7,2.6,7.4,2.5c-0.3-0.1-0.7-0.2-0.8,0
	C6.5,2.6,6.7,2.3,6.7,2.3c0.1,0,0.1,0,0.1-0.1c0-0.1,0-0.1,0.1-0.1c0.1,0,0.2,0,0.1-0.2C7,1.7,7,1.6,7,1.6c0.1-0.1,0.1-0.1,0.1-0.3
	s0-0.3,0-0.3s0.2,0,0.3,0.1C7.4,1,7.3,0.8,7.3,0.8C7.2,0.7,6.8-0.1,6.1,0C5.9-0.1,5.2,0.3,5.2,1.1c0,0.8-0.3,1-0.5,1.1
	C4.5,2.4,4.1,2.4,3.9,2.6C3.7,2.9,3.4,2.6,3.4,3.4z M7.3,4.8c0,0,0.1-0.8,0.1-0.9c0,0,0.4,0.4,0.8,0.4C8.6,4.4,9,4.5,9.3,4.5
	c-0.1,0-0.1,0.1-0.2,0.1C8.5,5,8.3,5.2,8.2,5.2C8,5.3,7.8,5.3,7.8,5.4c0,0.1-0.1,0-0.2,0C7.6,5.3,7.4,5.1,7.3,5
	C7.3,4.9,7.3,4.8,7.3,4.8z"/>
</svg>
