<?xml version="1.0" encoding="utf-8"?>
<!-- Generator: Adobe Illustrator 21.0.0, SVG Export Plug-In . SVG Version: 6.00 Build 0)  -->
<svg version="1.1" id="Layer_1" xmlns="http://www.w3.org/2000/svg" xmlns:xlink="http://www.w3.org/1999/xlink" x="0px" y="0px"
	 width="16px" height="16px" viewBox="0 0 16 16" style="enable-background:new 0 0 16 16;" xml:space="preserve">
<g>
	<path d="M5.3,11.7l1-1c0.2-0.2,0.5-0.3,0.8-0.3s0.6,0.1,0.8,0.3l1.2,1.2l4-4V1.5c0-0.8-0.7-1.5-1.5-1.5H1.8C1,0,0.3,0.7,0.3,1.5
		v10.4c0,0.8,0.7,1.5,1.5,1.5h3.5C4.8,12.9,4.8,12.2,5.3,11.7z M3,4.2c-0.2-0.3-0.3-0.7-0.5-1c-0.2-0.3,0-0.7,0.4-0.9
		c2.4-1.2,5.2-1.2,7.6,0c0.4,0.2,0.6,0.6,0.4,0.9c-0.2,0.3-0.3,0.7-0.5,1c-0.2,0.3-0.5,0.4-0.8,0.3C8.8,4.1,8,3.9,7.1,3.8L6.7,2.4
		L6.3,3.8C5.4,3.9,4.6,4.1,3.8,4.5C3.5,4.6,3.1,4.5,3,4.2z"/>
	<path d="M14.5,8.3c-0.1-0.1-0.3-0.2-0.5-0.2c-0.1,0-0.2,0-0.3,0.1c-0.1,0-0.2,0.1-0.2,0.1l-4.3,4.3l-1.5-1.5
		c-0.1-0.1-0.3-0.2-0.5-0.2c-0.2,0-0.4,0.1-0.5,0.2l-1,1c-0.3,0.3-0.3,0.7,0,1L6.6,14l1.6,1.6c0.3,0.3,0.6,0.4,1,0.4s0.7-0.1,1-0.4
		l5.3-5.3c0.3-0.3,0.3-0.7,0-1L14.5,8.3z M14.5,8.3"/>
</g>
</svg>
