<?xml version="1.0" encoding="utf-8"?>
<!-- Generator: Adobe Illustrator 21.0.0, SVG Export Plug-In . SVG Version: 6.00 Build 0)  -->
<svg version="1.1" id="Layer_1" xmlns="http://www.w3.org/2000/svg" xmlns:xlink="http://www.w3.org/1999/xlink" x="0px" y="0px"
	 width="16px" height="16px" viewBox="0 0 16 16" style="enable-background:new 0 0 16 16;" xml:space="preserve">
<g>
	<circle cx="7.1" cy="5.8" r="0.8"/>
	<circle cx="10.9" cy="5.8" r="0.8"/>
	<path d="M11.6,7.6c-0.2-0.1-0.5,0.1-0.5,0.3C11,8.6,10.2,9.3,9.1,9.3C8,9.3,7.1,8.6,7,7.9c0-0.2-0.3-0.4-0.5-0.3
		c-0.2,0-0.4,0.3-0.3,0.5c0.2,1.2,1.5,2.1,2.8,2.1c0,0,0.1,0,0.1,0c0.7,0,1.3-0.2,1.9-0.6c0.5-0.4,0.9-0.9,1-1.4
		C12,7.9,11.8,7.7,11.6,7.6z"/>
	<path d="M15.9,6.3c-0.2-0.9-0.5-1.8-1.1-2.6c-0.6-0.9-1.5-1.6-2.5-2.1c-1-0.5-2.2-0.8-3.3-0.8c-0.3,0-0.6,0-1,0.1
		C6.8,1,5.5,1.6,4.4,2.4C3.2,3.3,2.5,4.5,2.2,5.9C2.1,6.2,2.1,6.7,2.1,7.1C2,7.8,2,8.4,1.8,8.9C1.6,9.2,1.4,9.4,0.8,9.4
		c-0.3,0-0.6,0.2-0.8,0.5c-0.1,0.3-0.1,0.6,0.1,0.9c0.9,1.2,2,1.9,3.2,2.3c-0.1,0.2-0.1,0.3-0.1,0.5c0,0.9,0.7,1.7,1.7,1.7
		c0.9,0,1.6-0.7,1.7-1.6c0.4,0,0.8,0,1.1,0c0.1,0,0.1,0,0.2,0c0,0,0.1,0,0.1,0c0.1,0,0.1,0,0.2,0c0.1,0,0.2,0,0.2,0
		c0.2,0,0.4,0,0.6,0c0,0.9,0.8,1.6,1.7,1.6c0.9,0,1.7-0.7,1.7-1.7c0-0.2,0-0.4-0.1-0.6c0.7-0.3,1.3-0.7,1.8-1.3
		c0.7-0.7,1.3-1.6,1.6-2.5C16,8.2,16.1,7.2,15.9,6.3z M5,14.1c-0.3,0-0.5-0.2-0.5-0.5C4.4,13.2,4.6,13,5,13c0.3,0,0.5,0.2,0.5,0.5
		C5.5,13.8,5.3,14.1,5,14.1z M10.7,14.1c-0.3,0-0.5-0.2-0.5-0.5c0-0.3,0.2-0.5,0.5-0.5c0.3,0,0.5,0.2,0.5,0.5
		C11.3,13.8,11,14.1,10.7,14.1z M14.9,9c-0.5,1.5-1.7,2.7-3.1,3.3c-0.3-0.2-0.7-0.4-1.1-0.4c-0.6,0-1.2,0.4-1.5,0.9
		c-0.3,0-0.5,0-0.8,0c-0.2,0-0.3,0-0.4,0c0,0-0.1,0-0.1,0c-0.1,0-0.1,0-0.2,0c-0.4,0-0.9,0-1.3,0c-0.3-0.5-0.8-0.9-1.5-0.9
		c-0.4,0-0.8,0.2-1.1,0.4c-1.1-0.4-2.2-1-3-2.1C3.2,10.2,2.7,7.6,3,6c0.5-2.4,2.8-4,5.1-4.3c0.3,0,0.6-0.1,0.8-0.1
		C12.8,1.6,16.2,5,14.9,9z"/>
</g>
</svg>
